<?xml version="1.0" encoding="UTF-8"?>
<svg width="600" height="450" version="1.1" viewBox="0 0 600.00001 450.00001" xmlns="http://www.w3.org/2000/svg">
 <g transform="translate(0 -602.36)">
  <g transform="scale(1.0018 .99818)" fill="#000080">
   <path d="m156.34 629.96h301.19q35.086 0 45.11 47.844v292.99q-9.1132 50.578-45.11 50.578h-298.46q-47.844-10.024-47.844-45.11v-301.19q12.758-45.11 45.11-45.11zm163.35 109.81v11.164q0 5.6957-5.6957 5.6957h-25.289q-5.6957 0.91132-5.6957 5.6957v30.985h36.681v177.48q0.68348 5.4679 5.4679 5.4679h56.502v-177.25q0.68349-5.6957 5.4679-5.6957h36.681v-36.681h-36.681q-5.4679 0-5.4679-5.6957v-13.898q0-15.265 11.164-19.821h25.289q5.6957 0 5.6957-5.6957v-33.719q0-5.6957-5.6957-5.6957h-33.719q-64.704 0-64.704 67.665z" style=""/>
  </g>
 </g>
</svg>
