<svg xmlns="http://www.w3.org/2000/svg" xmlns:xlink="http://www.w3.org/1999/xlink" viewBox="0 0 81 82" fill="#fff" fill-rule="evenodd" stroke="#000" stroke-linecap="round" stroke-linejoin="round"><use xlink:href="#A" x=".5" y=".5"/><symbol id="A" overflow="visible"><path d="M78.629 36.661L43.356 1.402c-1.871-1.87-5.077-1.87-6.948 0l-7.482 7.479 9.085 9.082c.802-.267 1.336-.534 2.138-.534 3.474 0 6.146 2.671 6.146 6.144 0 .801 0 1.602-.267 2.137l8.818 8.814c.802-.267 1.336-.534 2.138-.534 3.474 0 6.146 2.671 6.146 6.144s-2.672 6.144-6.146 6.144-6.146-2.671-6.146-6.144c0-.801.267-1.603.535-2.137l-8.284-8.28v21.903c2.138 1.068 3.474 3.205 3.474 5.342 0 3.473-2.672 6.144-6.146 6.144s-6.146-2.671-6.146-6.144c0-2.671 1.603-4.808 4.008-5.61V29.449c-2.405-.802-4.008-3.205-4.008-5.61 0-.801.267-1.602.534-2.136l-9.353-9.082-24.05 24.04c-1.87 1.87-1.87 5.076 0 6.945l35.006 34.991c1.871 1.87 5.077 1.87 6.948 0l35.006-34.991c2.138-1.87 2.138-5.075.267-6.945z" fill="#dd5900" stroke="none"/></symbol></svg>