<svg xmlns="http://www.w3.org/2000/svg" viewBox="0 0 200 200"><defs><linearGradient id="a" x1="102.005" y1="88.535" x2="206.735" y2="193.265" gradientUnits="userSpaceOnUse"><stop offset="0" stop-color="#c55523"/><stop offset="1" stop-color="#a14623" stop-opacity="0"/></linearGradient></defs><path fill="#ef662c" d="M0 0h200v200H0z"/><path fill="url(#a)" d="M200 51.094L170.54 20 42.299 164.007 76.401 200H200V51.094z"/><path fill="#e45126" d="M42.299 164.007L29.46 20h141.08l-12.852 143.983L99.914 180l-57.615-15.993z"/><path fill="#f1682b" d="M100 167.758l46.684-12.943 10.984-123.041H100v135.984z"/><path fill="#ebebeb" d="M100 85.185H76.629l-1.615-18.086H100V49.436H55.712l.423 4.739 4.341 48.671H100V85.185zm0 45.868l-.077.022-19.67-5.312-1.258-14.085h-17.73l2.475 27.731 36.178 10.043.082-.022v-18.377z"/><path fill="#fff" d="M99.939 85.185v17.661h21.748l-2.05 22.906-19.698 5.316v18.376l36.208-10.035.265-2.984 4.151-46.498.43-4.742H99.939zm0-35.749v17.663h42.662l.354-3.97.804-8.954.423-4.739H99.939z"/></svg>