<svg xmlns="http://www.w3.org/2000/svg" xmlns:xlink="http://www.w3.org/1999/xlink" viewBox="0 0 85 85" fill="#fff" fill-rule="evenodd" stroke="#000" stroke-linecap="round" stroke-linejoin="round"><use xlink:href="#A" x="2.5" y="2.5"/><symbol id="A" overflow="visible"><g stroke="none"><path fill="#222" d="M0 0h80v80H0z"/><g fill="#00d8ff"><circle cx="39.937" cy="39.951" r="6.689"/><path d="M2.667 40c0-8.495 16.651-15.333 37.333-15.333S77.334 31.506 77.334 40 60.683 55.334 40 55.334 2.667 48.495 2.667 40zM6 40c0-6.648 15.164-12 34-12s34 5.352 34 12-15.164 12-34 12S6 46.648 6 40z"/><path d="M21.335 7.669c7.357-4.247 21.604 6.753 31.946 24.665s12.744 35.751 5.388 39.998-21.604-6.753-31.946-24.665-12.744-35.751-5.388-39.998zm1.667 2.887C28.759 7.232 40.976 17.688 50.394 34s12.365 32.121 6.608 35.445S39.027 62.313 29.609 46 17.244 13.88 23.002 10.556z"/><path d="M58.669 7.67c7.357 4.247 4.954 22.087-5.388 39.998S28.692 76.581 21.335 72.334s-4.954-22.087 5.388-39.998S51.312 3.423 58.669 7.67zm-1.667 2.887c5.757 3.324 2.81 19.132-6.608 35.445S28.759 72.771 23.002 69.447s-2.81-19.132 6.608-35.445S51.245 7.233 57.002 10.557z"/></g></g></symbol></svg>